<?xml version="1.0" encoding="utf-8"?>
<!-- Generator: Adobe Illustrator 28.1.0, SVG Export Plug-In . SVG Version: 6.00 Build 0)  -->
<svg version="1.1" id="Layer_1" xmlns="http://www.w3.org/2000/svg" xmlns:xlink="http://www.w3.org/1999/xlink" x="0px" y="0px"
	 viewBox="0 0 263 289.2" style="enable-background:new 0 0 263 289.2;" xml:space="preserve">
<path d="M123.4,5.8c-8.3,2.3-15.6,9.6-18.1,18c-1.2,4.2-1.2,6.4,0,25.8c0.8,11.6,1.4,22.3,1.4,23.8c0,2.3-0.5,2.7-6.4,5.4
	c-3.6,1.7-8.9,4.8-11.9,7c-3.1,2.1-6,3.6-6.7,3.4c-0.6-0.2-8.7-5.4-17.9-11.6C42.6,63.4,39.4,61.9,31.5,61.9
	C21.4,62,13,67.3,8.5,76.5c-3.1,6.4-3.4,16.3-0.6,22.2c3.3,7,7,9.6,29.9,21l21.5,10.8l-0.6,3.3c-0.7,4.3-0.7,17.1,0,21.4l0.6,3.3
	L38.4,169c-22.3,11.2-26.4,14-30,21c-2,3.7-2.3,5.4-2.3,11.5c0,6.4,0.3,7.7,2.5,11.8c7,12.8,22,17.9,33.9,11.7
	c2.4-1.3,12.2-7.6,22.1-14l17.7-11.8l5.2,3.8c2.8,2.1,8.2,5.3,12.1,7.1c6.4,3.1,7,3.5,7,5.9c0,1.4-0.6,12.1-1.4,23.7
	c-1.5,24-1.1,27.2,4.2,34.1c13.4,17.7,41.7,11.9,46.3-9.7c0.5-2.5,0.3-11.2-0.6-27.1l-1.4-23.5l6.8-3.1c3.7-1.7,9.2-4.9,12.2-7.2
	l5.5-4.1l19.9,13.2c11,7.2,21.5,13.7,23.3,14.3c11.1,4,25.1-2.4,30.8-13.9c4.9-9.9,2.5-22.8-5.7-30.2c-2-1.8-12-7.4-24-13.3
	l-20.5-10.3l0.1-14.3l0.2-14.3l21-10.7c11.6-5.9,22.4-11.9,23.9-13.4c1.6-1.4,3.9-4.6,5.1-6.9c1.9-3.5,2.2-5.4,2.2-11
	c0.1-5.8-0.3-7.6-2.3-11.6c-5.3-10.9-17.1-16.7-28.9-14.3c-3.8,0.8-8.3,3.4-24.7,14.1c-10.9,7.2-20.1,13.1-20.3,13.1
	c-0.3,0-3.4-2-7-4.5c-3.6-2.5-9.1-5.5-12.1-6.8l-5.5-2.4l1.4-23.5c1.4-24.6,1.3-27.9-1.9-34c-2-4-7.6-9.2-12.2-11.1
	C136.3,4.9,128.4,4.3,123.4,5.8z"/>
</svg>
