<?xml version="1.0" encoding="utf-8"?>
<!-- Generator: Adobe Illustrator 28.1.0, SVG Export Plug-In . SVG Version: 6.00 Build 0)  -->
<svg version="1.1"
	 id="Geometric_Shapes" xmlns:dc="http://purl.org/dc/elements/1.1/" xmlns:sodipodi="http://sodipodi.sourceforge.net/DTD/sodipodi-0.dtd" xmlns:ns1="http://sozi.baierouge.fr" xmlns:inkscape="http://www.inkscape.org/namespaces/inkscape" xmlns:cc="http://web.resource.org/cc/" xmlns:svg="http://www.w3.org/2000/svg" xmlns:rdf="http://www.w3.org/1999/02/22-rdf-syntax-ns#"
	 xmlns="http://www.w3.org/2000/svg" xmlns:xlink="http://www.w3.org/1999/xlink" x="0px" y="0px" viewBox="0 0 134.2 127.6"
	 style="enable-background:new 0 0 134.2 127.6;" xml:space="preserve">
<g id="layer1" transform="translate(0 -332.36)">
	<path id="path3533" d="M67.1,332.4c-4.6,14.3-13.7,26.6-25.6,35.2l0,0c-11.6,8.5-26,13.5-41.5,13.5c17.6,12.8,29.1,33.6,29.1,57.1
		c0,7.6-1.2,14.9-3.5,21.8c11.6-8.5,26-13.5,41.5-13.5s29.8,5,41.5,13.5c-2.2-6.9-3.5-14.2-3.5-21.8c0-23.5,11.4-44.3,29.1-57.1
		c-15.5,0-29.8-5-41.5-13.5l0,0C80.8,358.9,71.8,346.6,67.1,332.4L67.1,332.4z"/>
</g>
</svg>
