<?xml version="1.0" encoding="utf-8"?>
<!-- Generator: Adobe Illustrator 28.1.0, SVG Export Plug-In . SVG Version: 6.00 Build 0)  -->
<svg version="1.1" id="Layer_1" xmlns="http://www.w3.org/2000/svg" xmlns:xlink="http://www.w3.org/1999/xlink" x="0px" y="0px"
	 viewBox="0 0 292.8 289.2" style="enable-background:new 0 0 292.8 289.2;" xml:space="preserve">
<style type="text/css">
	.st0{fill:#231F20;}
</style>
<path class="st0" d="M288.4,143.3c0-7.4-4.8-14-11.8-16.3l-42.9-14.4c-26.8-8.7-47.9-29.4-57.3-56L162,13.7
	c-3.6-8.8-13.7-13.1-22.5-9.5c-4.3,1.8-7.7,5.2-9.5,9.5l-15,42.9c-9,27-30.2,48.3-57.3,57.3l-42.9,14.4C6,131.9,1.8,142,5.4,150.8
	c1.8,4.3,5.2,7.7,9.5,9.5l42.9,14.4c27,9,48.3,30.2,57.3,57.3l14.4,42.9c3.6,8.8,13.7,13.1,22.5,9.5c4.3-1.8,7.7-5.2,9.5-9.5
	l14.4-42.9c9-27,30.2-48.3,57.3-57.3l42.9-14.4C283.5,158.1,288.6,151.2,288.4,143.3z"/>
</svg>
